<svg width="900" height="500" viewBox="0 0 900 500"
xmlns="http://www.w3.org/2000/svg">

<defs>
<linearGradient id="bg" x1="0" x2="1">
<stop stop-color="#020617"/>
<stop offset="1" stop-color="#111827"/>
</linearGradient>

<filter id="glow">
<feGaussianBlur stdDeviation="5"/>
</filter>
</defs>


<rect width="900" height="500" rx="25" fill="url(#bg)"/>


<text x="50" y="70"
fill="#a78bfa"
font-size="38"
font-family="Arial"
font-weight="700">
&lt;/&gt; Most Used Languages
</text>


<!-- donut -->

<circle
cx="230"
cy="260"
r="120"
fill="none"
stroke="#1e293b"
stroke-width="45"/>


<circle
cx="230"
cy="260"
r="120"
fill="none"
stroke="#ff7a00"
stroke-width="45"
stroke-dasharray="430 320"
transform="rotate(-90 230 260)"
/>


<circle
cx="230"
cy="260"
r="120"
fill="none"
stroke="#2563eb"
stroke-width="45"
stroke-dasharray="80 670"
stroke-dashoffset="-430"
transform="rotate(-90 230 260)"
/>


<circle
cx="230"
cy="260"
r="120"
fill="none"
stroke="#22c55e"
stroke-width="45"
stroke-dasharray="50 700"
stroke-dashoffset="-510"
transform="rotate(-90 230 260)"
/>


<text x="185" y="255"
fill="white"
font-size="45"
font-family="Arial">
7
</text>

<text x="150" y="295"
fill="#94a3b8"
font-size="18"
font-family="Arial">
LANGUAGES
</text>



<!-- languages -->

<text x="430" y="150"
fill="#f97316"
font-size="25"
font-family="Arial">
● C#
</text>

<rect x="430" y="170"
width="300"
height="15"
rx="10"
fill="#f97316"/>


<text x="430" y="230"
fill="#3b82f6"
font-size="25"
font-family="Arial">
● JavaScript
</text>

<rect x="430" y="250"
width="220"
height="15"
rx="10"
fill="#3b82f6"/>


<text x="430" y="310"
fill="#22c55e"
font-size="25"
font-family="Arial">
● Python
</text>

<rect x="430" y="330"
width="150"
height="15"
rx="10"
fill="#22c55e"/>


<text x="430" y="390"
fill="#a855f7"
font-size="25"
font-family="Arial">
● TypeScript
</text>

<rect x="430" y="410"
width="100"
height="15"
rx="10"
fill="#a855f7"/>


<!-- footer -->

<text x="60" y="470"
fill="#94a3b8"
font-size="18"
font-family="Arial">
Auto generated GitHub Developer Stats
</text>


</svg>
